<svg width="250" height="246" viewBox="0 0 250 246" fill="none" xmlns="http://www.w3.org/2000/svg">
<path fill-rule="evenodd" clip-rule="evenodd" d="M3.23218 93.8238C1.11775 102.937 0 112.432 0 122.189C0 181.06 40.6984 230.426 95.495 243.686L247.163 148.793C249.021 140.22 250 131.319 250 122.189C250 62.6886 208.428 12.8982 152.745 0.27884L3.23218 93.8238ZM98.5156 0C69.6093 6.23585 44.4217 22.4688 26.7513 44.9004L98.5156 0ZM147.925 245.091C179.565 239.226 207.023 221.445 225.466 196.576L147.925 245.091ZM120.884 103.411C121.923 103.411 122.442 104.723 122.442 107.347C122.442 109.971 121.95 112.321 120.966 114.399C119.982 116.476 118.779 118.089 117.358 119.237C115.991 120.385 114.433 121.314 112.684 122.025C106.835 124.594 101.368 124.539 96.284 121.861C93.7147 120.494 91.7467 118.881 90.38 117.023C89.0133 115.109 87.92 112.841 87.1 110.217C85.8427 106.281 85.214 102.153 85.214 97.8348C85.214 93.5161 85.624 89.4708 86.444 85.6988C87.264 81.9268 88.5213 78.3461 90.216 74.9568C91.9107 71.5128 94.316 68.7521 97.432 66.6748C100.548 64.5974 104.156 63.5588 108.256 63.5588C110.005 63.5588 111.809 63.8594 113.668 64.4608C115.581 65.0075 117.139 65.7181 118.342 66.5928C119.545 67.4128 120.611 68.6974 121.54 70.4468C122.469 72.1961 122.934 74.2461 122.934 76.5968C122.934 79.1114 122.333 81.3801 121.13 83.4028C120.583 84.3321 119.709 85.1794 118.506 85.9448C117.303 86.6555 115.882 87.0108 114.242 87.0108C111.727 87.0108 109.951 85.8901 108.912 83.6488C108.475 82.7741 108.256 81.8174 108.256 80.7788C108.256 79.7401 108.611 79.1388 109.322 78.9748C110.087 78.7561 110.798 78.1548 111.454 77.1708C112.11 76.1868 112.438 75.0388 112.438 73.7268C112.438 72.6881 112.165 71.7861 111.618 71.0208C110.579 69.6541 109.076 68.9708 107.108 68.9708C105.14 68.9708 103.336 69.8728 101.696 71.6768C100.111 73.4808 98.908 75.7494 98.088 78.4828C96.448 83.9495 95.628 88.9788 95.628 93.5708C95.628 98.1628 96.2567 101.853 97.514 104.641C99.0447 108.085 100.985 110.381 103.336 111.529C104.812 112.239 106.507 112.595 108.42 112.595C111.645 112.595 114.543 111.146 117.112 108.249C118.205 107.101 119.107 105.734 119.818 104.149C120.091 103.657 120.447 103.411 120.884 103.411ZM153.016 76.7608L153.344 74.2188C153.344 71.7041 152.36 70.0915 150.392 69.3808C148.862 68.8888 147.686 68.6428 146.866 68.6428H146.784C145.144 68.6428 143.723 68.9161 142.52 69.4628C141.318 69.9548 140.443 70.5835 139.896 71.3488C138.748 72.9341 138.092 74.6015 137.928 76.3508C137.928 78.4281 138.858 80.2321 140.716 81.7628C142.575 83.2388 144.816 84.5508 147.44 85.6988C150.119 86.7921 152.77 87.9948 155.394 89.3068C158.073 90.6188 160.342 92.5048 162.2 94.9648C164.059 97.4248 164.988 100.377 164.988 103.821C164.988 110.545 162.856 115.574 158.592 118.909C154.383 122.243 149.572 123.911 144.16 123.911C138.803 123.911 134.348 122.708 130.794 120.303C127.296 117.843 125.546 114.563 125.546 110.463V110.381C125.546 108.358 125.847 106.609 126.448 105.133C127.104 103.602 127.87 102.481 128.744 101.771C130.548 100.295 132.188 99.5021 133.664 99.3928L134.648 99.3108C136.179 99.3108 137.573 99.6934 138.83 100.459C140.088 101.169 140.716 102.181 140.716 103.493C140.716 104.149 140.361 104.695 139.65 105.133C138.94 105.57 138.311 106.226 137.764 107.101C137.272 107.975 136.999 108.713 136.944 109.315L136.78 110.217C136.78 113.551 138.311 115.765 141.372 116.859C142.466 117.241 143.34 117.433 143.996 117.433C147.003 117.433 149.408 116.531 151.212 114.727C153.071 112.923 154 110.627 154 107.839C154 104.504 152.579 101.798 149.736 99.7208C147.604 98.1901 145.281 96.9055 142.766 95.8668C140.306 94.8281 138.639 94.0901 137.764 93.6528C136.89 93.2155 135.96 92.6961 134.976 92.0948C133.992 91.4935 132.899 90.6461 131.696 89.5528C129.072 87.2568 127.76 84.1681 127.76 80.2868C127.76 76.3508 128.826 73.0435 130.958 70.3648C134.785 65.4994 140.525 63.0668 148.178 63.0668C152.224 63.0668 155.64 63.8595 158.428 65.4448C161.216 66.9755 162.61 69.1075 162.61 71.8408C162.61 73.8088 162.036 75.4488 160.888 76.7608C159.795 78.0728 158.374 78.7288 156.624 78.7288C155.804 78.7288 154.984 78.5648 154.164 78.2368C153.399 77.9088 153.016 77.4168 153.016 76.7608ZM77.965 169.939L78.01 175.564L77.83 183.349C77.86 183.469 77.905 183.529 77.965 183.529C78.025 183.529 78.07 183.499 78.1 183.439C78.7 182.599 79.435 182.179 80.305 182.179C81.205 182.179 81.655 182.359 81.655 182.719C81.655 183.859 81.865 184.744 82.285 185.374C82.735 185.974 83.35 186.274 84.13 186.274C84.94 186.274 85.705 185.734 86.425 184.654C87.175 183.574 87.55 182.134 87.55 180.334C87.55 179.734 87.43 179.014 87.19 178.174C86.71 176.494 85.81 175.369 84.49 174.799C83.53 174.409 81.97 174.214 79.81 174.214C79.57 174.214 79.45 174.049 79.45 173.719C79.45 172.039 79.75 171.169 80.35 171.109C81.16 171.109 82.015 170.899 82.915 170.479C84.715 169.639 85.615 167.914 85.615 165.304C85.615 162.484 83.995 161.074 80.755 161.074L79.36 161.164C78.82 161.284 78.52 161.509 78.46 161.839V161.974C78.13 163.174 77.965 165.829 77.965 169.939ZM71.35 190.819L71.44 190.324C71.74 189.784 71.995 187.594 72.205 183.754C72.415 179.884 72.52 176.284 72.52 172.954C72.52 169.594 72.445 166.909 72.295 164.899C72.175 162.859 71.815 161.389 71.215 160.489C71.095 160.339 71.035 160.159 71.035 159.949C71.035 159.739 71.215 159.559 71.575 159.409C74.035 158.449 77.38 157.969 81.61 157.969C82.66 157.969 83.8 158.119 85.03 158.419C86.26 158.689 87.265 159.034 88.045 159.454C88.855 159.874 89.575 160.519 90.205 161.389C90.865 162.259 91.24 163.294 91.33 164.494C91.33 168.844 89.53 171.349 85.93 172.009C85.75 172.069 85.66 172.144 85.66 172.234C85.66 172.294 85.735 172.369 85.885 172.459C87.745 172.759 89.305 173.509 90.565 174.709C91.195 175.279 91.765 176.164 92.275 177.364C92.785 178.564 93.04 179.944 93.04 181.504C93.04 183.514 92.455 185.419 91.285 187.219C90.325 188.689 88.93 189.739 87.1 190.369C86.08 190.729 84.94 190.909 83.68 190.909C80.53 190.909 78.535 189.904 77.695 187.894C77.665 187.804 77.62 187.759 77.56 187.759L77.38 187.939C76.75 190.039 74.95 191.134 71.98 191.224C71.56 191.224 71.35 191.089 71.35 190.819ZM100.182 166.024L100.137 170.389C100.137 170.569 100.197 170.659 100.317 170.659C100.437 170.659 100.557 170.614 100.677 170.524C101.427 170.014 102.612 169.759 104.232 169.759C106.962 169.759 108.852 170.689 109.902 172.549C110.292 173.239 110.487 174.154 110.487 175.294C110.487 176.434 110.412 178.009 110.262 180.019C110.142 182.029 110.082 183.454 110.082 184.294C110.082 187.234 110.502 189.184 111.342 190.144C111.492 190.294 111.567 190.444 111.567 190.594C111.567 190.894 110.922 191.044 109.632 191.044C106.152 191.044 104.412 189.424 104.412 186.184C104.412 184.924 104.712 183.154 105.312 180.874C105.912 178.594 106.212 176.914 106.212 175.834C106.212 174.754 105.957 173.929 105.447 173.359C104.937 172.759 104.232 172.459 103.332 172.459C102.432 172.459 101.712 172.654 101.172 173.044C100.662 173.434 100.347 173.839 100.227 174.259L100.092 174.844C100.062 175.414 100.047 177.229 100.047 180.289C100.047 183.349 100.122 185.344 100.272 186.274C100.422 187.174 100.497 187.684 100.497 187.804C100.497 188.674 99.9123 189.454 98.7423 190.144C97.5723 190.804 96.4173 191.134 95.2773 191.134C94.8573 191.134 94.6473 190.894 94.6473 190.414L94.7374 189.559C95.3973 184.519 95.7273 179.059 95.7273 173.179C95.7273 170.899 95.6373 168.589 95.4573 166.249L95.4123 165.259C95.3523 164.419 95.1723 163.699 94.8723 163.099C94.6023 162.499 94.3473 162.109 94.1073 161.929L93.7023 161.704C93.4923 161.584 93.3873 161.449 93.3873 161.299C93.3873 160.879 94.0923 160.369 95.5023 159.769C96.9123 159.139 97.9923 158.824 98.7423 158.824C99.5223 158.824 99.9423 158.989 100.002 159.319C100.122 160.849 100.182 163.084 100.182 166.024ZM127.952 176.689L127.862 182.449C127.862 186.439 128.297 188.839 129.167 189.649C129.287 189.769 129.347 189.904 129.347 190.054C129.347 190.504 128.372 190.729 126.422 190.729C124.502 190.729 123.482 190.159 123.362 189.019C123.332 188.749 123.317 188.194 123.317 187.354L123.497 180.154C123.497 179.944 123.377 179.839 123.137 179.839C121.697 179.839 120.347 180.244 119.087 181.054C117.827 181.864 117.197 182.899 117.197 184.159C117.197 184.819 117.377 185.374 117.737 185.824C118.097 186.274 118.532 186.499 119.042 186.499C119.582 186.499 120.017 186.394 120.347 186.184C120.707 185.974 120.917 185.854 120.977 185.824C121.487 185.884 121.742 186.424 121.742 187.444C121.742 188.434 121.277 189.244 120.347 189.874C119.417 190.474 118.442 190.774 117.422 190.774C116.402 190.774 115.517 190.594 114.767 190.234C114.047 189.874 113.522 189.469 113.192 189.019C112.862 188.569 112.592 188.059 112.382 187.489C112.172 186.799 112.067 186.199 112.067 185.689C112.067 183.589 112.727 181.909 114.047 180.649C115.367 179.389 117.062 178.489 119.132 177.949C121.862 177.409 123.287 176.914 123.407 176.464C123.497 176.134 123.542 175.579 123.542 174.799C123.542 173.209 122.732 172.414 121.112 172.414C120.422 172.414 119.807 172.639 119.267 173.089C118.727 173.509 118.457 174.049 118.457 174.709L118.727 175.789C118.667 176.299 118.127 176.599 117.107 176.689L116.612 176.734C115.712 176.734 114.992 176.509 114.452 176.059C113.942 175.609 113.687 175.009 113.687 174.259C113.687 173.779 113.837 173.254 114.137 172.684C114.467 172.084 114.872 171.604 115.352 171.244C115.832 170.884 116.567 170.569 117.557 170.299C118.577 169.999 119.552 169.849 120.482 169.849C121.412 169.849 122.132 169.879 122.642 169.939C123.152 169.999 123.842 170.149 124.712 170.389C125.612 170.599 126.347 171.019 126.917 171.649C127.517 172.279 127.832 172.954 127.862 173.674C127.922 174.364 127.952 175.369 127.952 176.689ZM144.401 178.129L144.581 179.704C144.581 180.274 144.041 180.559 142.961 180.559C140.771 180.559 139.676 179.734 139.676 178.084C139.676 177.694 139.781 177.154 139.991 176.464C140.201 175.774 140.306 175.174 140.306 174.664C140.306 174.154 140.156 173.719 139.856 173.359C139.556 172.969 139.121 172.774 138.551 172.774C137.981 172.774 137.486 172.984 137.066 173.404C136.676 173.794 136.436 174.199 136.346 174.619L136.166 175.249C135.986 176.179 135.896 177.739 135.896 179.929C135.896 182.089 135.926 183.799 135.986 185.059C136.046 186.289 136.106 187.144 136.166 187.624C136.226 188.074 136.256 188.344 136.256 188.434C136.256 189.184 135.791 189.784 134.861 190.234C133.931 190.714 133.001 190.954 132.071 190.954C131.141 190.954 130.676 190.759 130.676 190.369L130.901 188.974C131.321 186.364 131.531 182.959 131.531 178.759C131.531 174.559 131.381 171.709 131.081 170.209C131.081 169.849 131.396 169.669 132.026 169.669C133.646 169.669 134.726 170.224 135.266 171.334C135.296 171.454 135.341 171.514 135.401 171.514C135.491 171.514 135.701 171.379 136.031 171.109C137.021 170.299 138.191 169.894 139.541 169.894C140.381 169.894 141.221 170.059 142.061 170.389C143.771 171.079 144.626 172.519 144.626 174.709L144.401 178.129ZM160.648 176.689L160.558 182.449C160.558 186.439 160.993 188.839 161.863 189.649C161.983 189.769 162.043 189.904 162.043 190.054C162.043 190.504 161.068 190.729 159.118 190.729C157.198 190.729 156.178 190.159 156.058 189.019C156.028 188.749 156.013 188.194 156.013 187.354L156.193 180.154C156.193 179.944 156.073 179.839 155.833 179.839C154.393 179.839 153.043 180.244 151.783 181.054C150.523 181.864 149.893 182.899 149.893 184.159C149.893 184.819 150.073 185.374 150.433 185.824C150.793 186.274 151.228 186.499 151.738 186.499C152.278 186.499 152.713 186.394 153.043 186.184C153.403 185.974 153.613 185.854 153.673 185.824C154.183 185.884 154.438 186.424 154.438 187.444C154.438 188.434 153.973 189.244 153.043 189.874C152.113 190.474 151.138 190.774 150.118 190.774C149.098 190.774 148.213 190.594 147.463 190.234C146.743 189.874 146.218 189.469 145.888 189.019C145.558 188.569 145.288 188.059 145.078 187.489C144.868 186.799 144.763 186.199 144.763 185.689C144.763 183.589 145.423 181.909 146.743 180.649C148.063 179.389 149.758 178.489 151.828 177.949C154.558 177.409 155.983 176.914 156.103 176.464C156.193 176.134 156.238 175.579 156.238 174.799C156.238 173.209 155.428 172.414 153.808 172.414C153.118 172.414 152.503 172.639 151.963 173.089C151.423 173.509 151.153 174.049 151.153 174.709L151.423 175.789C151.363 176.299 150.823 176.599 149.803 176.689L149.308 176.734C148.408 176.734 147.688 176.509 147.148 176.059C146.638 175.609 146.383 175.009 146.383 174.259C146.383 173.779 146.533 173.254 146.833 172.684C147.163 172.084 147.568 171.604 148.048 171.244C148.528 170.884 149.263 170.569 150.253 170.299C151.273 169.999 152.248 169.849 153.178 169.849C154.108 169.849 154.828 169.879 155.338 169.939C155.848 169.999 156.538 170.149 157.408 170.389C158.308 170.599 159.043 171.019 159.613 171.649C160.213 172.279 160.528 172.954 160.558 173.674C160.618 174.364 160.648 175.369 160.648 176.689ZM162.696 172.639L162.831 170.839C162.861 170.569 163.071 170.434 163.461 170.434H165.036L164.856 166.834V166.654C164.856 165.964 165.381 165.304 166.431 164.674C167.481 164.044 168.441 163.729 169.311 163.729C169.581 163.729 169.716 163.849 169.716 164.089V164.134C169.596 164.944 169.476 167.029 169.356 170.389C170.676 170.389 171.516 170.359 171.876 170.299C172.236 170.239 172.431 170.209 172.461 170.209C172.671 170.209 172.776 170.389 172.776 170.749C172.776 171.109 172.611 171.574 172.281 172.144C171.951 172.684 171.591 172.969 171.201 172.999H169.311C169.281 174.019 169.266 175.744 169.266 178.174C169.266 180.574 169.281 182.554 169.311 184.114C169.371 185.674 169.431 186.859 169.491 187.669C169.551 188.449 169.611 189.079 169.671 189.559C169.761 190.039 169.821 190.384 169.851 190.594C169.911 190.804 169.941 190.939 169.941 190.999C169.941 191.299 169.746 191.464 169.356 191.494C168.186 191.494 167.016 191.329 165.846 190.999C164.706 190.669 164.136 190.099 164.136 189.289C164.766 184.249 165.081 178.834 165.081 173.044C164.271 173.044 163.656 173.074 163.236 173.134H163.191C162.921 173.134 162.756 172.969 162.696 172.639Z" fill="url(#paint0_linear)"/>
<defs>
<linearGradient id="paint0_linear" x1="29" y1="34.1888" x2="228" y2="219.689" gradientUnits="userSpaceOnUse">
<stop stop-color="#01AE8F"/>
<stop offset="1" stop-color="#00BCFE" stop-opacity="0.54"/>
</linearGradient>
</defs>
</svg>
