<svg width="250" height="246" viewBox="0 0 250 246" fill="none" xmlns="http://www.w3.org/2000/svg">
<path fill-rule="evenodd" clip-rule="evenodd" d="M3.23218 93.8238C1.11775 102.937 0 112.432 0 122.189C0 181.06 40.6984 230.426 95.495 243.686L247.163 148.793C249.021 140.22 250 131.319 250 122.189C250 62.6886 208.428 12.8982 152.745 0.27884L3.23218 93.8238ZM98.5156 0C69.6093 6.23585 44.4217 22.4688 26.7513 44.9004L98.5156 0ZM147.925 245.091C179.565 239.226 207.023 221.445 225.466 196.576L147.925 245.091ZM120.884 103.411C121.923 103.411 122.442 104.723 122.442 107.347C122.442 109.971 121.95 112.321 120.966 114.399C119.982 116.476 118.779 118.089 117.358 119.237C115.991 120.385 114.433 121.314 112.684 122.025C106.835 124.594 101.368 124.539 96.284 121.861C93.7147 120.494 91.7467 118.881 90.38 117.023C89.0133 115.109 87.92 112.841 87.1 110.217C85.8427 106.281 85.214 102.153 85.214 97.8348C85.214 93.5161 85.624 89.4708 86.444 85.6988C87.264 81.9268 88.5213 78.3461 90.216 74.9568C91.9107 71.5128 94.316 68.7521 97.432 66.6748C100.548 64.5974 104.156 63.5588 108.256 63.5588C110.005 63.5588 111.809 63.8594 113.668 64.4608C115.581 65.0075 117.139 65.7181 118.342 66.5928C119.545 67.4128 120.611 68.6974 121.54 70.4468C122.469 72.1961 122.934 74.2461 122.934 76.5968C122.934 79.1114 122.333 81.3801 121.13 83.4028C120.583 84.3321 119.709 85.1794 118.506 85.9448C117.303 86.6555 115.882 87.0108 114.242 87.0108C111.727 87.0108 109.951 85.8901 108.912 83.6488C108.475 82.7741 108.256 81.8174 108.256 80.7788C108.256 79.7401 108.611 79.1388 109.322 78.9748C110.087 78.7561 110.798 78.1548 111.454 77.1708C112.11 76.1868 112.438 75.0388 112.438 73.7268C112.438 72.6881 112.165 71.7861 111.618 71.0208C110.579 69.6541 109.076 68.9708 107.108 68.9708C105.14 68.9708 103.336 69.8728 101.696 71.6768C100.111 73.4808 98.908 75.7494 98.088 78.4828C96.448 83.9495 95.628 88.9788 95.628 93.5708C95.628 98.1628 96.2567 101.853 97.514 104.641C99.0447 108.085 100.985 110.381 103.336 111.529C104.812 112.239 106.507 112.595 108.42 112.595C111.645 112.595 114.543 111.146 117.112 108.249C118.205 107.101 119.107 105.734 119.818 104.149C120.091 103.657 120.447 103.411 120.884 103.411ZM153.016 76.7608L153.344 74.2188C153.344 71.7041 152.36 70.0915 150.392 69.3808C148.862 68.8888 147.686 68.6428 146.866 68.6428H146.784C145.144 68.6428 143.723 68.9161 142.52 69.4628C141.318 69.9548 140.443 70.5835 139.896 71.3488C138.748 72.9341 138.092 74.6015 137.928 76.3508C137.928 78.4281 138.858 80.2321 140.716 81.7628C142.575 83.2388 144.816 84.5508 147.44 85.6988C150.119 86.7921 152.77 87.9948 155.394 89.3068C158.073 90.6188 160.342 92.5048 162.2 94.9648C164.059 97.4248 164.988 100.377 164.988 103.821C164.988 110.545 162.856 115.574 158.592 118.909C154.383 122.243 149.572 123.911 144.16 123.911C138.803 123.911 134.348 122.708 130.794 120.303C127.296 117.843 125.546 114.563 125.546 110.463V110.381C125.546 108.358 125.847 106.609 126.448 105.133C127.104 103.602 127.87 102.481 128.744 101.771C130.548 100.295 132.188 99.5021 133.664 99.3928L134.648 99.3108C136.179 99.3108 137.573 99.6934 138.83 100.459C140.088 101.169 140.716 102.181 140.716 103.493C140.716 104.149 140.361 104.695 139.65 105.133C138.94 105.57 138.311 106.226 137.764 107.101C137.272 107.975 136.999 108.713 136.944 109.315L136.78 110.217C136.78 113.551 138.311 115.765 141.372 116.859C142.466 117.241 143.34 117.433 143.996 117.433C147.003 117.433 149.408 116.531 151.212 114.727C153.071 112.923 154 110.627 154 107.839C154 104.504 152.579 101.798 149.736 99.7208C147.604 98.1901 145.281 96.9055 142.766 95.8668C140.306 94.8281 138.639 94.0901 137.764 93.6528C136.89 93.2155 135.96 92.6961 134.976 92.0948C133.992 91.4935 132.899 90.6461 131.696 89.5528C129.072 87.2568 127.76 84.1681 127.76 80.2868C127.76 76.3508 128.826 73.0435 130.958 70.3648C134.785 65.4994 140.525 63.0668 148.178 63.0668C152.224 63.0668 155.64 63.8595 158.428 65.4448C161.216 66.9755 162.61 69.1075 162.61 71.8408C162.61 73.8088 162.036 75.4488 160.888 76.7608C159.795 78.0728 158.374 78.7288 156.624 78.7288C155.804 78.7288 154.984 78.5648 154.164 78.2368C153.399 77.9088 153.016 77.4168 153.016 76.7608ZM77.965 169.939L78.01 175.564L77.83 183.349C77.86 183.469 77.905 183.529 77.965 183.529C78.025 183.529 78.07 183.499 78.1 183.439C78.7 182.599 79.435 182.179 80.305 182.179C81.205 182.179 81.655 182.359 81.655 182.719C81.655 183.859 81.865 184.744 82.285 185.374C82.735 185.974 83.35 186.274 84.13 186.274C84.94 186.274 85.705 185.734 86.425 184.654C87.175 183.574 87.55 182.134 87.55 180.334C87.55 179.734 87.43 179.014 87.19 178.174C86.71 176.494 85.81 175.369 84.49 174.799C83.53 174.409 81.97 174.214 79.81 174.214C79.57 174.214 79.45 174.049 79.45 173.719C79.45 172.039 79.75 171.169 80.35 171.109C81.16 171.109 82.015 170.899 82.915 170.479C84.715 169.639 85.615 167.914 85.615 165.304C85.615 162.484 83.995 161.074 80.755 161.074L79.36 161.164C78.82 161.284 78.52 161.509 78.46 161.839V161.974C78.13 163.174 77.965 165.829 77.965 169.939ZM71.35 190.819L71.44 190.324C71.74 189.784 71.995 187.594 72.205 183.754C72.415 179.884 72.52 176.284 72.52 172.954C72.52 169.594 72.445 166.909 72.295 164.899C72.175 162.859 71.815 161.389 71.215 160.489C71.095 160.339 71.035 160.159 71.035 159.949C71.035 159.739 71.215 159.559 71.575 159.409C74.035 158.449 77.38 157.969 81.61 157.969C82.66 157.969 83.8 158.119 85.03 158.419C86.26 158.689 87.265 159.034 88.045 159.454C88.855 159.874 89.575 160.519 90.205 161.389C90.865 162.259 91.24 163.294 91.33 164.494C91.33 168.844 89.53 171.349 85.93 172.009C85.75 172.069 85.66 172.144 85.66 172.234C85.66 172.294 85.735 172.369 85.885 172.459C87.745 172.759 89.305 173.509 90.565 174.709C91.195 175.279 91.765 176.164 92.275 177.364C92.785 178.564 93.04 179.944 93.04 181.504C93.04 183.514 92.455 185.419 91.285 187.219C90.325 188.689 88.93 189.739 87.1 190.369C86.08 190.729 84.94 190.909 83.68 190.909C80.53 190.909 78.535 189.904 77.695 187.894C77.665 187.804 77.62 187.759 77.56 187.759L77.38 187.939C76.75 190.039 74.95 191.134 71.98 191.224C71.56 191.224 71.35 191.089 71.35 190.819ZM100.182 166.024L100.137 170.389C100.137 170.569 100.197 170.659 100.317 170.659C100.437 170.659 100.557 170.614 100.677 170.524C101.427 170.014 102.612 169.759 104.232 169.759C106.962 169.759 108.852 170.689 109.902 172.549C110.292 173.239 110.487 174.154 110.487 175.294C110.487 176.434 110.412 178.009 110.262 180.019C110.142 182.029 110.082 183.454 110.082 184.294C110.082 187.234 110.502 189.184 111.342 190.144C111.492 190.294 111.567 190.444 111.567 190.594C111.567 190.894 110.922 191.044 109.632 191.044C106.152 191.044 104.412 189.424 104.412 186.184C104.412 184.924 104.712 183.154 105.312 180.874C105.912 178.594 106.212 176.914 106.212 175.834C106.212 174.754 105.957 173.929 105.447 173.359C104.937 172.759 104.232 172.459 103.332 172.459C102.432 172.459 101.712 172.654 101.172 173.044C100.662 173.434 100.347 173.839 100.227 174.259L100.092 174.844C100.062 175.414 100.047 177.229 100.047 180.289C100.047 183.349 100.122 185.344 100.272 186.274C100.422 187.174 100.497 187.684 100.497 187.804C100.497 188.674 99.9123 189.454 98.7423 190.144C97.5723 190.804 96.4173 191.134 95.2773 191.134C94.8573 191.134 94.6473 190.894 94.6473 190.414L94.7374 189.559C95.3973 184.519 95.7273 179.059 95.7273 173.179C95.7273 170.899 95.6373 168.589 95.4573 166.249L95.4123 165.259C95.3523 164.419 95.1723 163.699 94.8723 163.099C94.6023 162.499 94.3473 162.109 94.1073 161.929L93.7023 161.704C93.4923 161.584 93.3873 161.449 93.3873 161.299C93.3873 160.879 94.0923 160.369 95.5023 159.769C96.9123 159.139 97.9923 158.824 98.7423 158.824C99.5223 158.824 99.9423 158.989 100.002 159.319C100.122 160.849 100.182 163.084 100.182 166.024ZM127.952 176.689L127.862 182.449C127.862 186.439 128.297 188.839 129.167 189.649C129.287 189.769 129.347 189.904 129.347 190.054C129.347 190.504 128.372 190.729 126.422 190.729C124.502 190.729 123.482 190.159 123.362 189.019C123.332 188.749 123.317 188.194 123.317 187.354L123.497 180.154C123.497 179.944 123.377 179.839 123.137 179.839C121.697 179.839 120.347 180.244 119.087 181.054C117.827 181.864 117.197 182.899 117.197 184.159C117.197 184.819 117.377 185.374 117.737 185.824C118.097 186.274 118.532 186.499 119.042 186.499C119.582 186.499 120.017 186.394 120.347 186.184C120.707 185.974 120.917 185.854 120.977 185.824C121.487 185.884 121.742 186.424 121.742 187.444C121.742 188.434 121.277 189.244 120.347 189.874C119.417 190.474 118.442 190.774 117.422 190.774C116.402 190.774 115.517 190.594 114.767 190.234C114.047 189.874 113.522 189.469 113.192 189.019C112.862 188.569 112.592 188.059 112.382 187.489C112.172 186.799 112.067 186.199 112.067 185.689C112.067 183.589 112.727 181.909 114.047 180.649C115.367 179.389 117.062 178.489 119.132 177.949C121.862 177.409 123.287 176.914 123.407 176.464C123.497 176.134 123.542 175.579 123.542 174.799C123.542 173.209 122.732 172.414 121.112 172.414C120.422 172.414 119.807 172.639 119.267 173.089C118.727 173.509 118.457 174.049 118.457 174.709L118.727 175.789C118.667 176.299 118.127 176.599 117.107 176.689L116.612 176.734C115.712 176.734 114.992 176.509 114.452 176.059C113.942 175.609 113.687 175.009 113.687 174.259C113.687 173.779 113.837 173.254 114.137 172.684C114.467 172.084 114.872 171.604 115.352 171.244C115.832 170.884 116.567 170.569 117.557 170.299C118.577 169.999 119.552 169.849 120.482 169.849C121.412 169.849 122.132 169.879 122.642 169.939C123.152 169.999 123.842 170.149 124.712 170.389C125.612 170.599 126.347 171.019 126.917 171.649C127.517 172.279 127.832 172.954 127.862 173.674C127.922 174.364 127.952 175.369 127.952 176.689ZM144.401 178.129L144.581 179.704C144.581 180.274 144.041 180.559 142.961 180.559C140.771 180.559 139.676 179.734 139.676 178.084C139.676 177.694 139.781 177.154 139.991 176.464C140.201 175.774 140.306 175.174 140.306 174.664C140.306 174.154 140.156 173.719 139.856 173.359C139.556 172.969 139.121 172.774 138.551 172.774C137.981 172.774 137.486 172.984 137.066 173.404C136.676 173.794 136.436 174.199 136.346 174.619L136.166 175.249C135.986 176.179 135.896 177.739 135.896 179.929C135.896 182.089 135.926 183.799 135.986 185.059C136.046 186.289 136.106 187.144 136.166 187.624C136.226 188.074 136.256 188.344 136.256 188.434C136.256 189.184 135.791 189.784 134.861 190.234C133.931 190.714 133.001 190.954 132.071 190.954C131.141 190.954 130.676 190.759 130.676 190.369L130.901 188.974C131.321 186.364 131.531 182.959 131.531 178.759C131.531 174.559 131.381 171.709 131.081 170.209C131.081 169.849 131.396 169.669 132.026 169.669C133.646 169.669 134.726 170.224 135.266 171.334C135.296 171.454 135.341 171.514 135.401 171.514C135.491 171.514 135.701 171.379 136.031 171.109C137.021 170.299 138.191 169.894 139.541 169.894C140.381 169.894 141.221 170.059 142.061 170.389C143.771 171.079 144.626 172.519 144.626 174.709L144.401 178.129ZM160.648 176.689L160.558 182.449C160.558 186.439 160.993 188.839 161.863 189.649C161.983 189.769 162.043 189.904 162.043 190.054C162.043 190.504 161.068 190.729 159.118 190.729C157.198 190.729 156.178 190.159 156.058 189.019C156.028 188.749 156.013 188.194 156.013 187.354L156.193 180.154C156.193 179.944 156.073 179.839 155.833 179.839C154.393 179.839 153.043 180.244 151.783 181.054C150.523 181.864 149.893 182.899 149.893 184.159C149.893 184.819 150.073 185.374 150.433 185.824C150.793 186.274 151.228 186.499 151.738 186.499C152.278 186.499 152.713 186.394 153.043 186.184C153.403 185.974 153.613 185.854 153.673 185.824C154.183 185.884 154.438 186.424 154.438 187.444C154.438 188.434 153.973 189.244 153.043 189.874C152.113 190.474 151.138 190.774 150.118 190.774C149.098 190.774 148.213 190.594 147.463 190.234C146.743 189.874 146.218 189.469 145.888 189.019C145.558 188.569 145.288 188.059 145.078 187.489C144.868 186.799 144.763 186.199 144.763 185.689C144.763 183.589 145.423 181.909 146.743 180.649C148.063 179.389 149.758 178.489 151.828 177.949C154.558 177.409 155.983 176.914 156.103 176.464C156.193 176.134 156.238 175.579 156.238 174.799C156.238 173.209 155.428 172.414 153.808 172.414C153.118 172.414 152.503 172.639 151.963 173.089C151.423 173.509 151.153 174.049 151.153 174.709L151.423 175.789C151.363 176.299 150.823 176.599 149.803 176.689L149.308 176.734C148.408 176.734 147.688 176.509 147.148 176.059C146.638 175.609 146.383 175.009 146.383 174.259C146.383 173.779 146.533 173.254 146.833 172.684C147.163 172.084 147.568 171.604 148.048 171.244C148.528 170.884 149.263 170.569 150.253 170.299C151.273 169.999 152.248 169.849 153.178 169.849C154.108 169.849 154.828 169.879 155.338 169.939C155.848 169.999 156.538 170.149 157.408 170.389C158.308 170.599 159.043 171.019 159.613 171.649C160.213 172.279 160.528 172.954 160.558 173.674C160.618 174.364 160.648 175.369 160.648 176.689ZM162.696 172.639L162.831 170.839C162.861 170.569 163.071 170.434 163.461 170.434H165.036L164.856 166.834V166.654C164.856 165.964 165.381 165.304 166.431 164.674C167.481 164.044 168.441 163.729 169.311 163.729C169.581 163.729 169.716 163.849 169.716 164.089V164.134C169.596 164.944 169.476 167.029 169.356 170.389C170.676 170.389 171.516 170.359 171.876 170.299C172.236 170.239 172.431 170.209 172.461 170.209C172.671 170.209 172.776 170.389 172.776 170.749C172.776 171.109 172.611 171.574 172.281 172.144C171.951 172.684 171.591 172.969 171.201 172.999H169.311C169.281 174.019 169.266 175.744 169.266 178.174C169.266 180.574 169.281 182.554 169.311 184.114C169.371 185.674 169.431 186.859 169.491 187.669C169.551 188.449 169.611 189.079 169.671 189.559C169.761 190.039 169.821 190.384 169.851 190.594C169.911 190.804 169.941 190.939 169.941 190.999C169.941 191.299 169.746 191.464 169.356 191.494C168.186 191.494 167.016 191.329 165.846 190.999C164.706 190.669 164.136 190.099 164.136 189.289C164.766 184.249 165.081 178.834 165.081 173.044C164.271 173.044 163.656 173.074 163.236 173.134H163.191C162.921 173.134 162.756 172.969 162.696 172.639Z" fill="url(#paint0_linear)"/>
<path d="M121.346 103.993C122.397 103.993 122.923 105.321 122.923 107.977C122.923 110.633 122.425 113.012 121.429 115.115C120.433 117.218 119.216 118.85 117.777 120.012C116.394 121.174 114.817 122.115 113.046 122.834C107.125 125.435 101.592 125.379 96.446 122.668C93.8453 121.285 91.8533 119.652 90.47 117.771C89.0867 115.834 87.98 113.538 87.15 110.882C85.8773 106.898 85.241 102.72 85.241 98.349C85.241 93.9777 85.656 89.883 86.486 86.065C87.316 82.247 88.5887 78.6227 90.304 75.192C92.0193 71.706 94.454 68.9117 97.608 66.809C100.762 64.7063 104.414 63.655 108.564 63.655C110.335 63.655 112.161 63.9593 114.042 64.568C115.979 65.1213 117.556 65.8407 118.773 66.726C119.99 67.556 121.069 68.8563 122.01 70.627C122.951 72.3977 123.421 74.4727 123.421 76.852C123.421 79.3973 122.812 81.6937 121.595 83.741C121.042 84.6817 120.156 85.5393 118.939 86.314C117.722 87.0333 116.283 87.393 114.623 87.393C112.078 87.393 110.279 86.2587 109.228 83.99C108.785 83.1047 108.564 82.1363 108.564 81.085C108.564 80.0337 108.924 79.425 109.643 79.259C110.418 79.0377 111.137 78.429 111.801 77.433C112.465 76.437 112.797 75.275 112.797 73.947C112.797 72.8957 112.52 71.9827 111.967 71.208C110.916 69.8247 109.394 69.133 107.402 69.133C105.41 69.133 103.584 70.046 101.924 71.872C100.319 73.698 99.102 75.9943 98.272 78.761C96.612 84.2943 95.782 89.385 95.782 94.033C95.782 98.681 96.4183 102.416 97.691 105.238C99.2403 108.724 101.205 111.048 103.584 112.21C105.078 112.929 106.793 113.289 108.73 113.289C111.995 113.289 114.927 111.823 117.528 108.89C118.635 107.728 119.548 106.345 120.267 104.74C120.544 104.242 120.903 103.993 121.346 103.993ZM153.87 77.018L154.202 74.445C154.202 71.8997 153.206 70.2673 151.214 69.548C149.665 69.05 148.475 68.801 147.645 68.801H147.562C145.902 68.801 144.464 69.0777 143.246 69.631C142.029 70.129 141.144 70.7653 140.59 71.54C139.428 73.1447 138.764 74.8323 138.598 76.603C138.598 78.7057 139.539 80.5317 141.42 82.081C143.302 83.575 145.57 84.903 148.226 86.065C150.938 87.1717 153.621 88.389 156.277 89.717C158.989 91.045 161.285 92.954 163.166 95.444C165.048 97.934 165.988 100.922 165.988 104.408C165.988 111.214 163.83 116.305 159.514 119.68C155.254 123.055 150.384 124.743 144.906 124.743C139.484 124.743 134.974 123.526 131.377 121.091C127.836 118.601 126.065 115.281 126.065 111.131V111.048C126.065 109.001 126.37 107.23 126.978 105.736C127.642 104.187 128.417 103.052 129.302 102.333C131.128 100.839 132.788 100.037 134.282 99.926L135.278 99.843C136.828 99.843 138.239 100.23 139.511 101.005C140.784 101.724 141.42 102.748 141.42 104.076C141.42 104.74 141.061 105.293 140.341 105.736C139.622 106.179 138.986 106.843 138.432 107.728C137.934 108.613 137.658 109.36 137.602 109.969L137.436 110.882C137.436 114.257 138.986 116.498 142.084 117.605C143.191 117.992 144.076 118.186 144.74 118.186C147.784 118.186 150.218 117.273 152.044 115.447C153.926 113.621 154.866 111.297 154.866 108.475C154.866 105.1 153.428 102.361 150.55 100.258C148.392 98.7087 146.041 97.4083 143.495 96.357C141.005 95.3057 139.318 94.5587 138.432 94.116C137.547 93.6733 136.606 93.1477 135.61 92.539C134.614 91.9303 133.508 91.0727 132.29 89.966C129.634 87.642 128.306 84.5157 128.306 80.587C128.306 76.603 129.385 73.2553 131.543 70.544C135.417 65.6193 141.227 63.157 148.973 63.157C153.068 63.157 156.526 63.9593 159.348 65.564C162.17 67.1133 163.581 69.2713 163.581 72.038C163.581 74.03 163 75.69 161.838 77.018C160.732 78.346 159.293 79.01 157.522 79.01C156.692 79.01 155.862 78.844 155.032 78.512C154.258 78.18 153.87 77.682 153.87 77.018Z" fill="white"/>
<path d="M74.496 167.4L74.544 173.4L74.352 181.704C74.384 181.832 74.432 181.896 74.496 181.896C74.56 181.896 74.608 181.864 74.64 181.8C75.28 180.904 76.064 180.456 76.992 180.456C77.952 180.456 78.432 180.648 78.432 181.032C78.432 182.248 78.656 183.192 79.104 183.864C79.584 184.504 80.24 184.824 81.072 184.824C81.936 184.824 82.752 184.248 83.52 183.096C84.32 181.944 84.72 180.408 84.72 178.488C84.72 177.848 84.592 177.08 84.336 176.184C83.824 174.392 82.864 173.192 81.456 172.584C80.432 172.168 78.768 171.96 76.464 171.96C76.208 171.96 76.08 171.784 76.08 171.432C76.08 169.64 76.4 168.712 77.04 168.648C77.904 168.648 78.816 168.424 79.776 167.976C81.696 167.08 82.656 165.24 82.656 162.456C82.656 159.448 80.928 157.944 77.472 157.944L75.984 158.04C75.408 158.168 75.088 158.408 75.024 158.76V158.904C74.672 160.184 74.496 163.016 74.496 167.4ZM67.44 189.672L67.536 189.144C67.856 188.568 68.128 186.232 68.352 182.136C68.576 178.008 68.688 174.168 68.688 170.616C68.688 167.032 68.608 164.168 68.448 162.024C68.32 159.848 67.936 158.28 67.296 157.32C67.168 157.16 67.104 156.968 67.104 156.744C67.104 156.52 67.296 156.328 67.68 156.168C70.304 155.144 73.872 154.632 78.384 154.632C79.504 154.632 80.72 154.792 82.032 155.112C83.344 155.4 84.416 155.768 85.248 156.216C86.112 156.664 86.88 157.352 87.552 158.28C88.256 159.208 88.656 160.312 88.752 161.592C88.752 166.232 86.832 168.904 82.992 169.608C82.8 169.672 82.704 169.752 82.704 169.848C82.704 169.912 82.784 169.992 82.944 170.088C84.928 170.408 86.592 171.208 87.936 172.488C88.608 173.096 89.216 174.04 89.76 175.32C90.304 176.6 90.576 178.072 90.576 179.736C90.576 181.88 89.952 183.912 88.704 185.832C87.68 187.4 86.192 188.52 84.24 189.192C83.152 189.576 81.936 189.768 80.592 189.768C77.232 189.768 75.104 188.696 74.208 186.552C74.176 186.456 74.128 186.408 74.064 186.408L73.872 186.6C73.2 188.84 71.28 190.008 68.112 190.104C67.664 190.104 67.44 189.96 67.44 189.672ZM98.1945 163.224L98.1465 167.88C98.1465 168.072 98.2105 168.168 98.3385 168.168C98.4665 168.168 98.5945 168.12 98.7225 168.024C99.5225 167.48 100.787 167.208 102.515 167.208C105.427 167.208 107.443 168.2 108.563 170.184C108.979 170.92 109.187 171.896 109.187 173.112C109.187 174.328 109.107 176.008 108.947 178.152C108.819 180.296 108.755 181.816 108.755 182.712C108.755 185.848 109.203 187.928 110.099 188.952C110.259 189.112 110.339 189.272 110.339 189.432C110.339 189.752 109.651 189.912 108.275 189.912C104.563 189.912 102.707 188.184 102.707 184.728C102.707 183.384 103.027 181.496 103.667 179.064C104.307 176.632 104.627 174.84 104.627 173.688C104.627 172.536 104.355 171.656 103.811 171.048C103.267 170.408 102.515 170.088 101.555 170.088C100.595 170.088 99.8265 170.296 99.2505 170.712C98.7065 171.128 98.3705 171.56 98.2425 172.008L98.0985 172.632C98.0665 173.24 98.0505 175.176 98.0505 178.44C98.0505 181.704 98.1305 183.832 98.2905 184.824C98.4505 185.784 98.5305 186.328 98.5305 186.456C98.5305 187.384 97.9065 188.216 96.6585 188.952C95.4105 189.656 94.1785 190.008 92.9625 190.008C92.5145 190.008 92.2905 189.752 92.2905 189.24L92.3865 188.328C93.0905 182.952 93.4425 177.128 93.4425 170.856C93.4425 168.424 93.3465 165.96 93.1545 163.464L93.1065 162.408C93.0425 161.512 92.8505 160.744 92.5305 160.104C92.2425 159.464 91.9705 159.048 91.7145 158.856L91.2825 158.616C91.0585 158.488 90.9465 158.344 90.9465 158.184C90.9465 157.736 91.6985 157.192 93.2025 156.552C94.7065 155.88 95.8585 155.544 96.6585 155.544C97.4905 155.544 97.9385 155.72 98.0025 156.072C98.1305 157.704 98.1945 160.088 98.1945 163.224ZM127.816 174.6L127.72 180.744C127.72 185 128.184 187.56 129.112 188.424C129.24 188.552 129.304 188.696 129.304 188.856C129.304 189.336 128.264 189.576 126.184 189.576C124.136 189.576 123.048 188.968 122.92 187.752C122.888 187.464 122.872 186.872 122.872 185.976L123.064 178.296C123.064 178.072 122.936 177.96 122.68 177.96C121.144 177.96 119.704 178.392 118.36 179.256C117.016 180.12 116.344 181.224 116.344 182.568C116.344 183.272 116.536 183.864 116.92 184.344C117.304 184.824 117.768 185.064 118.312 185.064C118.888 185.064 119.352 184.952 119.704 184.728C120.088 184.504 120.312 184.376 120.376 184.344C120.92 184.408 121.192 184.984 121.192 186.072C121.192 187.128 120.696 187.992 119.704 188.664C118.712 189.304 117.672 189.624 116.584 189.624C115.496 189.624 114.552 189.432 113.752 189.048C112.984 188.664 112.424 188.232 112.072 187.752C111.72 187.272 111.432 186.728 111.208 186.12C110.984 185.384 110.872 184.744 110.872 184.2C110.872 181.96 111.576 180.168 112.984 178.824C114.392 177.48 116.2 176.52 118.408 175.944C121.32 175.368 122.84 174.84 122.968 174.36C123.064 174.008 123.112 173.416 123.112 172.584C123.112 170.888 122.248 170.04 120.52 170.04C119.784 170.04 119.128 170.28 118.552 170.76C117.976 171.208 117.688 171.784 117.688 172.488L117.976 173.64C117.912 174.184 117.336 174.504 116.248 174.6L115.72 174.648C114.76 174.648 113.992 174.408 113.416 173.928C112.872 173.448 112.6 172.808 112.6 172.008C112.6 171.496 112.76 170.936 113.08 170.328C113.432 169.688 113.864 169.176 114.376 168.792C114.888 168.408 115.672 168.072 116.728 167.784C117.816 167.464 118.856 167.304 119.848 167.304C120.84 167.304 121.608 167.336 122.152 167.4C122.696 167.464 123.432 167.624 124.36 167.88C125.32 168.104 126.104 168.552 126.712 169.224C127.352 169.896 127.688 170.616 127.72 171.384C127.784 172.12 127.816 173.192 127.816 174.6ZM145.361 176.136L145.553 177.816C145.553 178.424 144.977 178.728 143.825 178.728C141.489 178.728 140.321 177.848 140.321 176.088C140.321 175.672 140.433 175.096 140.657 174.36C140.881 173.624 140.993 172.984 140.993 172.44C140.993 171.896 140.833 171.432 140.513 171.048C140.193 170.632 139.729 170.424 139.121 170.424C138.513 170.424 137.985 170.648 137.537 171.096C137.121 171.512 136.865 171.944 136.769 172.392L136.577 173.064C136.385 174.056 136.289 175.72 136.289 178.056C136.289 180.36 136.321 182.184 136.385 183.528C136.449 184.84 136.513 185.752 136.577 186.264C136.641 186.744 136.673 187.032 136.673 187.128C136.673 187.928 136.177 188.568 135.185 189.048C134.193 189.56 133.201 189.816 132.209 189.816C131.217 189.816 130.721 189.608 130.721 189.192L130.961 187.704C131.409 184.92 131.633 181.288 131.633 176.808C131.633 172.328 131.473 169.288 131.153 167.688C131.153 167.304 131.489 167.112 132.161 167.112C133.889 167.112 135.041 167.704 135.617 168.888C135.649 169.016 135.697 169.08 135.761 169.08C135.857 169.08 136.081 168.936 136.433 168.648C137.489 167.784 138.737 167.352 140.177 167.352C141.073 167.352 141.969 167.528 142.865 167.88C144.689 168.616 145.601 170.152 145.601 172.488L145.361 176.136ZM162.691 174.6L162.595 180.744C162.595 185 163.059 187.56 163.987 188.424C164.115 188.552 164.179 188.696 164.179 188.856C164.179 189.336 163.139 189.576 161.059 189.576C159.011 189.576 157.923 188.968 157.795 187.752C157.763 187.464 157.747 186.872 157.747 185.976L157.939 178.296C157.939 178.072 157.811 177.96 157.555 177.96C156.019 177.96 154.579 178.392 153.235 179.256C151.891 180.12 151.219 181.224 151.219 182.568C151.219 183.272 151.411 183.864 151.795 184.344C152.179 184.824 152.643 185.064 153.187 185.064C153.763 185.064 154.227 184.952 154.579 184.728C154.963 184.504 155.187 184.376 155.251 184.344C155.795 184.408 156.067 184.984 156.067 186.072C156.067 187.128 155.571 187.992 154.579 188.664C153.587 189.304 152.547 189.624 151.459 189.624C150.371 189.624 149.427 189.432 148.627 189.048C147.859 188.664 147.299 188.232 146.947 187.752C146.595 187.272 146.307 186.728 146.083 186.12C145.859 185.384 145.747 184.744 145.747 184.2C145.747 181.96 146.451 180.168 147.859 178.824C149.267 177.48 151.075 176.52 153.283 175.944C156.195 175.368 157.715 174.84 157.843 174.36C157.939 174.008 157.987 173.416 157.987 172.584C157.987 170.888 157.123 170.04 155.395 170.04C154.659 170.04 154.003 170.28 153.427 170.76C152.851 171.208 152.563 171.784 152.563 172.488L152.851 173.64C152.787 174.184 152.211 174.504 151.123 174.6L150.595 174.648C149.635 174.648 148.867 174.408 148.291 173.928C147.747 173.448 147.475 172.808 147.475 172.008C147.475 171.496 147.635 170.936 147.955 170.328C148.307 169.688 148.739 169.176 149.251 168.792C149.763 168.408 150.547 168.072 151.603 167.784C152.691 167.464 153.731 167.304 154.723 167.304C155.715 167.304 156.483 167.336 157.027 167.4C157.571 167.464 158.307 167.624 159.235 167.88C160.195 168.104 160.979 168.552 161.587 169.224C162.227 169.896 162.563 170.616 162.595 171.384C162.659 172.12 162.691 173.192 162.691 174.6ZM164.876 170.28L165.02 168.36C165.052 168.072 165.276 167.928 165.692 167.928H167.372L167.18 164.088V163.896C167.18 163.16 167.74 162.456 168.86 161.784C169.98 161.112 171.004 160.776 171.932 160.776C172.22 160.776 172.364 160.904 172.364 161.16V161.208C172.236 162.072 172.108 164.296 171.98 167.88C173.388 167.88 174.284 167.848 174.668 167.784C175.052 167.72 175.26 167.688 175.292 167.688C175.516 167.688 175.628 167.88 175.628 168.264C175.628 168.648 175.452 169.144 175.1 169.752C174.748 170.328 174.364 170.632 173.948 170.664H171.932C171.9 171.752 171.884 173.592 171.884 176.184C171.884 178.744 171.9 180.856 171.932 182.52C171.996 184.184 172.06 185.448 172.124 186.312C172.188 187.144 172.252 187.816 172.316 188.328C172.412 188.84 172.476 189.208 172.508 189.432C172.572 189.656 172.604 189.8 172.604 189.864C172.604 190.184 172.396 190.36 171.98 190.392C170.732 190.392 169.484 190.216 168.236 189.864C167.02 189.512 166.412 188.904 166.412 188.04C167.084 182.664 167.42 176.888 167.42 170.712C166.556 170.712 165.9 170.744 165.452 170.808H165.404C165.116 170.808 164.94 170.632 164.876 170.28Z" fill="black"/>
<defs>
<linearGradient id="paint0_linear" x1="29" y1="34.1888" x2="228" y2="219.689" gradientUnits="userSpaceOnUse">
<stop stop-color="#01AE8F"/>
<stop offset="1" stop-color="#00BCFE" stop-opacity="0.54"/>
</linearGradient>
</defs>
</svg>
